<svg xmlns="http://www.w3.org/2000/svg" viewBox="0 0 32 32" width="32" height="32" role="img" aria-label="VB6 Modernizr icon">
  <title>VB6 Modernizr icon (32 px, pixel-hinted)</title>
  <defs>
    <linearGradient id="cap" x1="0" y1="0" x2="1" y2="0">
      <stop offset="0" stop-color="#000080"/><stop offset="1" stop-color="#1084d0"/>
    </linearGradient>
    <linearGradient id="aqua" x1="0" y1="0" x2="0" y2="1">
      <stop offset="0" stop-color="#8be0ff"/>
      <stop offset=".48" stop-color="#39aef0"/>
      <stop offset=".52" stop-color="#0a7ad0"/>
      <stop offset="1" stop-color="#36b0f4"/>
    </linearGradient>
    <linearGradient id="glass" x1="0" y1="0" x2="0" y2="1">
      <stop offset="0" stop-color="#ffffff"/><stop offset="1" stop-color="#d9edff"/>
    </linearGradient>
    <radialGradient id="btn" cx=".35" cy=".3" r=".9">
      <stop offset="0" stop-color="#ffb3a7"/><stop offset=".55" stop-color="#f2503c"/><stop offset="1" stop-color="#c81e0a"/>
    </radialGradient>
    <clipPath id="cutL"><polygon points="0,0 21,0 11,32 0,32"/></clipPath>
    <clipPath id="cutR"><polygon points="21,0 32,0 32,32 11,32"/></clipPath>
  </defs>

  <g clip-path="url(#cutL)">
    <rect x="1" y="1" width="30" height="30" fill="#d4d0c8" stroke="#808080" stroke-width="2"/>
    <path d="M3,29 V3 H29" stroke="#ffffff" stroke-width="1.5" fill="none"/>
    <rect x="3.5" y="3.5" width="25" height="5" fill="url(#cap)"/>
    <rect x="5" y="5" width="8" height="2" fill="#ffffff"/>
    <rect x="6" y="13" width="1.5" height="1.5" fill="#808080"/>
    <rect x="10" y="13" width="1.5" height="1.5" fill="#808080"/>
    <rect x="6" y="18" width="1.5" height="1.5" fill="#808080"/>
    <rect x="6" y="23" width="1.5" height="1.5" fill="#808080"/>
  </g>
  <g clip-path="url(#cutR)">
    <rect x="1" y="1" width="30" height="30" rx="7" fill="url(#glass)" stroke="#0a7ad0" stroke-width="1.5"/>
    <path d="M11,1 H24 A7,7 0 0 1 31,8 V9.5 H11 Z" fill="url(#aqua)"/>
    <circle cx="26" cy="5.5" r="2.2" fill="url(#btn)"/>
    <rect x="18" y="22" width="9" height="4.5" rx="2.2" fill="url(#aqua)"/>
  </g>
  <line x1="21" y1="1" x2="11" y2="31" stroke="#ffffff" stroke-width="1.2" opacity=".9"/>
</svg>
